# xmcd
#
# Track frame offsets:
#	150
#	795
#	10725
#	23397
#	44775
#	60887
#	65639
#	78033
#	95362
#	109312
#	112493
#	129233
#	130851
#	143476
#	160316
#	175570
#	187597
#	204487
#	219883
#	233324
#	247997
#	262742
#	277199
#	286853
#	299012
#	312691
#	315568
#	317492
#	318412
#	319304
#	320019
#	320787
#	321509
#
# Disc length: 4293 seconds
#
# Revision: 0
# Processed by: cddbd v1.5.2PL0 Copyright (c) Steve Scherf et al.
# Submitted via: audiograbber 1.83.01
#
DISCID=cb10c321
DTITLE=Country Hotdisc - Country Hotdisc 030
DYEAR=2001
DGENRE=Country
TTITLE0=Indledning -Indledning
TTITLE1=Can´t Get Nowhere -The Tractors
TTITLE2=It Just Happed -Kristyn Smyth
TTITLE3=The Decision -Ricky Van Sheldon
TTITLE4=Everything I Ain´t -Sean Kenny
TTITLE5=Soundbite for radio Use -Narvel Felts
TTITLE6=Crying -Narvel Felts
TTITLE7=The Lucky One -Clive John
TTITLE8=Holding On -Kerrigan La-Brooy
TTITLE9=Soundbite for radio Use -Claudia Nygaard
TTITLE10=I Don´t Need A Man -Claudia Nygaard
TTITLE11=Soundbite for radio Use -Poli from Poli and The Tics
TTITLE12=Up Yer Nose -Poli and The Tics
TTITLE13=I Can´t Hear The Music -Loretta Lynn
TTITLE14=Make My Day Tonight -Hachet
TTITLE15=Jones On The Jukeboks -Lou Hobbs
TTITLE16=Whistle To Blow -Fallen Horses
TTITLE17=Jessico-Kentucky Headhunters
TTITLE18=Ride Cowboy Ride -Boomer McLennan
TTITLE19=Perfume And Roses -Rosa
TTITLE20=Fall Down A Tramp, Stand Up Lady -John McCane
TTITLE21=All I Want Is You -DD Pearce Band
TTITLE22=The Shape My Mind´sIn -Ernie Ashworth
TTITLE23=Heartache, Heartache -Kerr Donnelly Band
TTITLE24=Why Doncha Kiss Me Like That -Judy Welden
TTITLE25=Soundbite for radio Use -Claudia Nygaard
TTITLE26=Soundbite for radio Use -Claudia Nygaard
TTITLE27=Soundbite for radio Use -Claudia Nygaard
TTITLE28=Soundbite for radio Use -Claudia Nygaard
TTITLE29=Soundbite for radio Use -Narvel Felts
TTITLE30=Soundbite for radio Use -Narvel Felts
TTITLE31=Soundbite for radio Use -Narvel Felts
TTITLE32=Soundbite for radio Use -Boomer McLennan
EXTD=
EXTT0=
EXTT1=
EXTT2=
EXTT3=
EXTT4=
EXTT5=
EXTT6=
EXTT7=
EXTT8=
EXTT9=
EXTT10=
EXTT11=
EXTT12=
EXTT13=
EXTT14=
EXTT15=
EXTT16=
EXTT17=
EXTT18=
EXTT19=
EXTT20=
EXTT21=
EXTT22=
EXTT23=
EXTT24=
EXTT25=
EXTT26=
EXTT27=
EXTT28=
EXTT29=
EXTT30=
EXTT31=
EXTT32=
PLAYORDER=
